# This file uses centimeters as units for non-parametric coordinates.

mtllib lightningO.mtl
g default
v 0.164390 0.019034 2.983103
v 0.164390 0.238432 2.983103
v 0.850002 0.238432 1.686554
v 1.151561 0.238145 1.979421
v 0.850002 0.019034 1.686554
v 1.158751 0.019182 1.983914
v 1.992352 0.019330 0.840416
v 1.992352 0.238728 0.840416
v 1.352418 0.238728 2.171472
v 1.001962 0.238062 1.835000
v 1.352418 0.019330 2.171472
v 1.008100 0.019182 1.838997
vt 0.375000 0.000000
vt 0.375000 0.250000
vt 0.375000 0.500000
vt 0.375000 0.750000
vt 0.625000 0.750000
vt 0.375000 1.000000
vt 0.875000 0.250000
vt 0.125000 0.000000
vt 0.125000 0.250000
vt 0.375000 0.250000
vt 0.375000 0.000000
vt 0.875000 0.000000
vt 0.875000 0.250000
vt 0.375000 0.500000
vt 0.625000 0.750000
vt 0.375000 0.750000
vt 0.375000 1.000000
vt 0.125000 0.000000
vt 0.125000 0.250000
vt 0.500488 0.500000
vt 0.500488 0.750000
vt 0.519289 0.500000
vt 0.519289 0.750000
vn 0.696414 0.003209 -0.717633
vn 0.696414 0.003209 -0.717633
vn 0.696414 0.003209 -0.717633
vn 0.696414 0.003209 -0.717633
vn 0.000339 -1.000000 0.000119
vn 0.000339 -1.000000 0.000119
vn 0.000339 -1.000000 0.000119
vn 0.000339 -1.000000 0.000119
vn 0.000339 -1.000000 0.000119
vn 0.000339 -1.000000 0.000119
vn -0.884013 0.000000 -0.467463
vn -0.884013 0.000000 -0.467463
vn -0.884013 0.000000 -0.467463
vn -0.884013 0.000000 -0.467463
vn -0.710301 -0.016365 -0.703707
vn -0.710301 -0.016365 -0.703707
vn -0.710301 -0.016365 -0.703707
vn -0.710301 -0.016365 -0.703707
vn -0.000406 1.000000 -0.000179
vn -0.000406 1.000000 -0.000179
vn -0.000406 1.000000 -0.000179
vn -0.000406 1.000000 -0.000179
vn -0.000406 1.000000 -0.000179
vn -0.000406 1.000000 -0.000179
vn 0.559499 0.017670 0.828643
vn 0.568328 0.017753 0.822610
vn 0.710758 0.018865 0.703184
vn 0.710758 0.018865 0.703184
vn 0.901251 0.000000 0.433297
vn 0.901251 0.000000 0.433297
vn 0.901251 0.000000 0.433297
vn 0.901251 0.000000 0.433297
vn -0.693346 -0.003985 0.720594
vn -0.693346 -0.003985 0.720594
s off
g pCube3
usemtl standardSurface2SG
f 3/3/1 10/20/2 12/21/3 5/4/4
f 6/5/5 1/6/6 5/4/7 12/15/8 7/17/9 11/16/10
f 5/8/11 1/1/12 2/2/13 3/9/14
f 8/10/15 7/11/16 12/12/17 10/13/18
f 4/22/19 9/14/20 8/10/21 10/20/22 3/3/23 2/2/24
s 1
f 6/23/25 4/7/26 2/2/27 1/1/28
s off
f 8/10/29 9/19/30 11/18/31 7/11/32
s 1
f 6/23/25 11/16/33 9/14/34 4/7/26
